<svg xmlns="http://www.w3.org/2000/svg" width="576.09" height="593.84" viewBox="0 0 432.07 445.38">
  <g fill="none" stroke="#FFF" stroke-width="12.47" stroke-linecap="round" stroke-linejoin="round">
    <path fill="#000" stroke="#000" stroke-width="37.4" d="M323.2 324.23c2.84-23.6 2-27.07 19.57-23.24l4.46.3c13.52.6 31.2-2.2 41.6-7 22.35-10.4 35.6-27.7 13.56-23.18-50.3 10.4-53.8-6.65-53.8-6.65 53.1-78.8 75.3-178.84 56.1-203.3C352.5-5.58 262 26.02 260.5 26.82l-.48.1c-9.94-2.05-21.06-3.3-33.55-3.5-22.78-.36-40.05 5.98-53.15 15.9 0 0-161.4-66.5-153.9 83.64 1.6 31.93 45.78 241.65 98.47 178.3 19.2-23.16 37.8-42.74 37.8-42.74 9.22 6.14 20.3 9.27 31.9 8.14l.9-.76c-.3 2.9-.17 5.7.34 9.08-13.57 15.16-9.58 17.83-36.7 23.4-27.46 5.67-11.3 15.75-.8 18.38 12.8 3.2 42.3 7.73 62.3-20.2l-.8 3.17c5.3 4.26 4.95 30.6 5.7 49.46.76 18.8 2 36.4 5.86 46.72 3.84 10.37 8.37 37.06 44.04 29.4 29.8-6.37 52.6-15.57 54.7-101.1" stroke-linecap="butt" stroke-linejoin="miter"/>
    <path fill="#336791" stroke="none" d="M402.4 271.23c-50.3 10.38-53.76-6.66-53.76-6.66 53.1-78.8 75.3-178.84 56.15-203.32-52.3-66.8-142.8-35.2-144.3-34.38l-.5.1c-10-2.08-21.1-3.3-33.6-3.5-22.78-.38-40.05 5.96-53.15 15.9 0 0-161.4-66.5-153.9 83.62 1.6 31.9 45.8 241.6 98.47 178.3 19.26-23.2 37.87-42.8 37.87-42.8 9.23 6.1 20.3 9.22 31.9 8.1l.9-.78c-.28 2.87-.15 5.7.36 9.02-13.56 15.15-9.6 17.82-36.7 23.4-27.45 5.66-11.32 15.74-.8 18.37 12.78 3.2 42.3 7.75 62.28-20.2l-.8 3.2c5.3 4.26 9.03 27.7 8.4 48.97-.62 21.26-1.04 35.86 3.15 47.26 4.2 11.4 8.37 37.05 44.05 29.4 29.8-6.38 45.26-22.94 47.4-50.55 1.54-19.63 5-16.73 5.2-34.28l2.77-8.3c3.2-26.63.5-35.2 18.87-31.2l4.46.37c13.5.6 31.2-2.17 41.6-7 22.34-10.37 35.6-27.7 13.55-23.14z"/>
    <path d="M215.87 286.48c-1.4 49.52.34 99.38 5.2 111.5 4.84 12.12 15.2 35.7 50.9 28.04 29.8-6.4 40.64-18.75 45.35-46.05 3.46-20.08 10.14-75.85 11-87.28M173.1 38.2s-161.52-66.02-154 84.1c1.6 31.94 45.77 241.67 98.47 178.32 19.25-23.17 36.67-41.33 36.67-41.33m106.1-233.1c-5.6 1.7 89.86-34.9 144.1 34.4 19.15 24.5-3.05 124.5-56.16 203.3"/>
    <path d="M348.28 263.95s3.46 17.04 53.77 6.66c22.04-4.5 8.77 12.8-13.58 23.2-18.35 8.5-59.48 10.7-60.15-1-1.73-30.35 21.65-21.13 19.96-28.74-1.52-6.85-11.98-13.57-18.9-30.34-6.03-14.6-82.8-126.82 21.3-110.16 3.8-.8-27.15-99-124.56-100.6-97.38-1.6-94.2 119.74-94.2 119.74" stroke-linejoin="bevel"/>
    <path d="M188.6 274.33c-13.57 15.17-9.58 17.83-36.72 23.42-27.46 5.66-11.32 15.73-.8 18.37 12.77 3.2 42.3 7.7 62.27-20.23 6.08-8.6-.04-22.1-8.38-25.6-4.04-1.7-9.43-3.8-16.37 4z"/>
    <path d="M187.72 274.07c-1.37-8.92 2.93-19.53 7.53-31.94 6.92-18.63 22.9-37.26 10.12-96.34-9.53-44.1-73.4-9.2-73.44-3.2-.04 5.9 2.9 30.2-1.07 58.5-5.16 36.9 23.5 68.1 56.48 64.9"/>
    <path fill="#FFF" stroke-width="4.16" d="M172.52 141.7c-.3 2.04 3.73 7.48 8.97 8.2 5.2.74 9.7-3.52 10-5.55.2-2.04-3.8-4.3-9-5.02-5.3-.73-9.7.34-10 2.37z" stroke-linecap="butt" stroke-linejoin="miter"/>
    <path fill="#FFF" stroke-width="2.08" d="M331.94 137.54c.28 2.04-3.73 7.48-8.98 8.2-5.23.74-9.7-3.5-10-5.55-.28-2.1 3.74-4.3 8.98-5.1 5.24-.76 9.72.3 10 2.33z" stroke-linecap="butt" stroke-linejoin="miter"/>
    <path d="M350.68 123.43c.86 16-3.45 26.9-4 43.92-.8 24.74 11.8 53.07-7.18 81.43"/>
  </g>
</svg>
